<?xml version="1.0" encoding="UTF-8"?>
<svg version="1.1" xmlns="http://www.w3.org/2000/svg" width="2951" height="2951">
<path d="M0 0 C6.93 0.495 6.93 0.495 14 1 C14.2475 2.093125 14.495 3.18625 14.75 4.3125 C16.03841325 8.11331909 16.55053973 9.17381515 20 11 C23.82303569 12.2992344 27.71097681 12.14687499 31.70037842 12.14476013 C32.48063267 12.14828698 33.26088692 12.15181382 34.06478524 12.15544754 C36.68219356 12.16613086 39.29956547 12.16981503 41.91699219 12.17358398 C43.79307712 12.17989003 45.66916056 12.18665589 47.54524231 12.19384766 C51.58905475 12.20852109 55.6328614 12.22024494 59.67668915 12.22979546 C66.08317253 12.24526412 72.48960674 12.26921726 78.89605713 12.29469299 C97.11540612 12.36583956 115.33478397 12.42549688 133.55419922 12.47680664 C143.61413418 12.50521287 153.67402087 12.54065519 163.73390508 12.58346039 C170.08860255 12.61008006 176.44324542 12.6280795 182.79798746 12.63949764 C186.77468377 12.64869829 190.75131457 12.66609539 194.72797203 12.68567657 C196.55633437 12.69307856 198.38471362 12.69722863 200.2130909 12.69767189 C219.94203269 12.70630798 240.36885491 12.96603958 255.93359375 26.70703125 C267.97834154 39.01080588 268.31025536 57.71140158 268.30078125 73.87890625 C268.30592332 75.2871266 268.31159227 76.69534512 268.31774902 78.1035614 C268.33006919 81.82427462 268.32717015 85.54480051 268.31805801 89.26551819 C268.31246541 91.57679311 268.30961386 93.88806083 268.30697632 96.19934082 C268.26981389 118.57724821 267.93599442 140.78189016 265 163 C264.8621106 164.04912567 264.8621106 164.04912567 264.72143555 165.1194458 C262.69850322 180.37707628 259.9838398 195.06060074 256 210 C174.82 210 93.64 210 10 210 C7.74032254 203.22096763 6.10800797 197.30110392 4.9375 190.375 C4.76831055 189.37936035 4.59912109 188.3837207 4.42480469 187.35791016 C-2.26908256 146.31109671 -3.01827752 90.03655504 16 52 C15.27554687 52.03480469 14.55109375 52.06960938 13.8046875 52.10546875 C8.12280263 52.26456153 3.82965069 52.38075548 -1 49 C-4.91814792 44.83496148 -4.32383875 41.09264619 -4.19482422 35.6328125 C-3.87800556 29.72521647 -3.26630294 23.87266269 -2.5625 18 C-2.42779297 16.81277344 -2.29308594 15.62554688 -2.15429688 14.40234375 C-1.5922553 9.53862786 -0.96124185 4.80620925 0 0 Z M34 52 C33.3559077 54.69274002 32.71454887 57.38608367 32.07470703 60.07983398 C31.89394119 60.83432579 31.71317535 61.5888176 31.52693176 62.36617279 C29.98130493 68.88876211 28.81623743 75.42504813 27.875 82.0625 C27.71032227 83.20879883 27.54564453 84.35509766 27.37597656 85.53613281 C20.14929267 127.4895849 20.14929267 127.4895849 30 167 C33.89269932 170.90107859 36.19446885 172.56118016 41.9241299 172.67337912 C42.67228578 172.66290763 43.42044165 172.65243615 44.19126892 172.64164734 C45.40436535 172.65440562 45.40436535 172.65440562 46.64196879 172.66742164 C49.34370969 172.68965315 52.04406825 172.67626653 54.74584961 172.6628418 C56.68610112 172.67125669 58.62634446 172.68178257 60.5665741 172.69425964 C65.83112867 172.72131863 71.09520955 172.71660394 76.35980296 172.70455909 C80.7560214 172.69742864 85.15215218 172.7059265 89.54836375 172.71446449 C99.91993667 172.73441977 110.29127911 172.72884403 120.6628418 172.70678711 C131.36032502 172.68442351 142.05720478 172.70202146 152.75463098 172.73983639 C161.94209323 172.77107227 171.12936869 172.77898564 180.31687742 172.76788265 C185.80287728 172.76139546 191.2885289 172.7633986 196.77448845 172.78720665 C201.93346757 172.80845553 207.09159525 172.80048465 212.25052071 172.77011299 C214.14233428 172.76378446 216.03421393 172.76764913 217.92597961 172.78252411 C220.51220988 172.80120929 223.0956557 172.78279369 225.68174744 172.75517273 C226.42767259 172.76923918 227.17359774 172.78330563 227.94212669 172.79779834 C233.13769613 172.68623558 235.79822542 171.1037962 239.58418661 167.58502322 C247.39906976 158.83615039 246.30928262 143.3306086 246.30078125 132.38671875 C246.30720894 130.50688042 246.30720894 130.50688042 246.31376648 128.58906555 C246.3209154 125.28925299 246.31793239 121.98962685 246.31219482 118.68981934 C246.31270011 115.37452108 246.34025637 112.05936256 246.36132812 108.74414062 C247.34504193 83.56247349 247.34504193 83.56247349 237.46875 61.30078125 C225.87802788 50.42130798 208.13133271 51.70486767 193.27612305 51.77294922 C191.5303854 51.77351459 189.78464728 51.77319432 188.03890991 51.77206421 C183.33937383 51.77149461 178.63994158 51.7831847 173.94042945 51.79721212 C169.01439435 51.80978556 164.08835641 51.81089517 159.16230774 51.81326294 C149.85186013 51.81945838 140.54145995 51.8358428 131.23103315 51.85596192 C120.62392685 51.87838143 110.0168182 51.88932952 99.40969408 51.89935279 C77.60643633 51.9202109 55.80322116 51.95534893 34 52 Z " fill="#000000" transform="translate(1514,1282)"/>
<path d="M0 0 C6.93 0.495 6.93 0.495 14 1 C14.55338542 2.98567708 15.10677083 4.97135417 15.66015625 6.95703125 C17.67462149 10.02865026 20.60654671 10.95359117 24 12 C26.85672654 12.42328035 29.67362364 12.48718252 32.55859375 12.51171875 C33.34774673 12.52966995 34.13689972 12.54762115 34.94996643 12.56611633 C37.4457582 12.61986528 39.94136272 12.65399965 42.4375 12.6875 C44.13999982 12.7207045 45.84247504 12.75519702 47.54492188 12.79101562 C51.69647864 12.87557066 55.8479833 12.94254912 60 13 C59.47714865 18.07358039 58.90980586 23.13960407 58.30322266 28.20385742 C58.10351906 29.92191937 57.9153904 31.64137247 57.73974609 33.36206055 C56.71569247 43.31042332 55.72040925 50.93207499 48.87646484 58.72509766 C40.45347696 68.93657321 39.25428139 87.3461498 40.14306641 100.04394531 C42.17195697 118.71333745 50.42814746 151.42814746 64 165 C67.58439855 153.4794979 71.16769258 141.95865251 74.75 130.4375 C75.01290455 129.59196815 75.2758091 128.74643631 75.54668045 127.87528229 C83.40639167 102.59637138 91.24997683 77.31280356 99 52 C97.38351563 52.03673828 97.38351563 52.03673828 95.734375 52.07421875 C90.54816897 51.97114562 86.72163343 50.77716999 83.0625 47 C79.70555893 37.52157816 82.74082015 25.58487653 84 15.8125 C84.19332626 14.27286392 84.38603902 12.73315068 84.578125 11.19335938 C85.04390203 7.46112018 85.52218522 3.73079483 86 0 C92.93 0.495 92.93 0.495 100 1 C100.2475 2.093125 100.495 3.18625 100.75 4.3125 C102.03841325 8.11331909 102.55053973 9.17381515 106 11 C110.05359052 12.19068926 114.06963858 12.22495555 118.265625 12.31640625 C119.05902283 12.33718735 119.85242065 12.35796844 120.66986084 12.37937927 C123.19648844 12.44459973 125.72321721 12.50363144 128.25 12.5625 C129.96615616 12.6057114 131.68230222 12.64932653 133.3984375 12.69335938 C137.59885546 12.80025283 141.79937489 12.90159729 146 13 C145.45386343 21.872212 144.41281409 30.54923854 142.9375 39.3125 C142.75123047 40.44623047 142.56496094 41.57996094 142.37304688 42.74804688 C141.92026795 45.49954959 141.46254468 48.25012525 141 51 C140.24436768 51.12552246 139.48873535 51.25104492 138.71020508 51.38037109 C137.71915771 51.55133301 136.72811035 51.72229492 135.70703125 51.8984375 C134.72452393 52.06520996 133.7420166 52.23198242 132.72973633 52.40380859 C126.76197446 53.70720493 123.09406255 57.36226416 119.71118164 62.21606445 C112.85807594 73.36543872 108.37348478 85.78940942 104.375 98.1875 C103.87744243 99.70420872 103.37954773 101.22080689 102.88134766 102.73730469 C97.2818605 119.88536307 92.04703351 137.15259173 86.8359375 154.421875 C86.578125 155.27254044 86.3203125 156.12320587 86.0546875 156.99964905 C84.5618136 161.97130579 83.22048326 166.95437008 82 172 C138.21436772 162.39442156 138.21436772 162.39442156 180.59912109 128.16552734 C191.89346317 110.70634048 203.23505974 87.41700421 203.3125 66.25 C203.33763672 64.64898438 203.33763672 64.64898438 203.36328125 63.015625 C202.93565535 59.46587018 202.33420317 57.71927538 200 55 C195.18418234 53.0771796 190.64680899 52.7379594 185.5 52.5625 C173.74622468 51.88886466 173.74622468 51.88886466 169.34545898 47.25952148 C164.81209811 39.64633787 168.47190854 25.85835574 169.4375 17.4375 C169.63956055 15.57254883 169.63956055 15.57254883 169.84570312 13.66992188 C170.36224025 9.011009 170.8617272 4.55309122 172 0 C178.93 0.495 178.93 0.495 186 1 C186.2475 2.093125 186.495 3.18625 186.75 4.3125 C188.03841325 8.11331909 188.55053973 9.17381515 192 11 C194.92225065 11.88082161 197.62338448 12.15520607 200.66796875 12.24609375 C201.56193359 12.27896484 202.45589844 12.31183594 203.37695312 12.34570312 C205.23101603 12.40625973 207.08518641 12.46362146 208.93945312 12.51757812 C223.51015187 13.0703677 223.51015187 13.0703677 228.5 16.9375 C233.63357092 23.99616002 231.50029229 36.98031391 230.3515625 45.203125 C223.15180561 89.89424871 203.95119041 155.23630155 167.34765625 185.421875 C162.2965203 188.81731414 156.68584183 190.91322391 151 193 C150.26152832 193.27312012 149.52305664 193.54624023 148.76220703 193.82763672 C123.58878406 202.98873501 97.3058169 208.27950065 71 213 C69.87980469 213.20157715 68.75960937 213.4031543 67.60546875 213.61083984 C66.54972656 213.79469238 65.49398437 213.97854492 64.40625 214.16796875 C63.48134766 214.32934326 62.55644531 214.49071777 61.60351562 214.65698242 C59.03530144 214.99534898 56.58698461 215.06222084 54 215 C31.87977154 172.42782847 8.20892002 123.9329499 23 76 C25.5479244 67.95949519 28.22987614 59.96648683 31 52 C30.2793335 52.01571045 29.55866699 52.0314209 28.81616211 52.04760742 C25.52335585 52.11030487 22.23067562 52.14910095 18.9375 52.1875 C17.2369043 52.22520508 17.2369043 52.22520508 15.50195312 52.26367188 C4.19540649 52.36256295 4.19540649 52.36256295 -1 49 C-4.0311271 44.68460017 -4.31849367 41.48090698 -3.875 36.3125 C-3.79584351 35.33023437 -3.79584351 35.33023437 -3.71508789 34.328125 C-2.7294176 22.86410018 -1.32827386 11.42816757 0 0 Z " fill="#000000" transform="translate(2127,1282)"/>
<path d="M0 0 C4.95 0.33 9.9 0.66 15 1 C15.20625 2.753125 15.4125 4.50625 15.625 6.3125 C18.62826402 23.56615103 32.74167473 36.45390042 45.3515625 47.640625 C47.56821372 49.61534084 49.6757779 51.6288498 51.75 53.75 C53.94653708 55.99563363 56.21646021 58.07521058 58.609375 60.109375 C64.34615549 65.09913776 69.60353882 70.55704667 74.93359375 75.97265625 C79.24433491 80.3253171 83.61910007 84.50441435 88.26757812 88.49462891 C90.44199492 90.38406717 92.48164432 92.38310225 94.5 94.4375 C95.1703125 95.11683594 95.840625 95.79617188 96.53125 96.49609375 C97.0159375 96.99238281 97.500625 97.48867187 98 98 C101.19459671 94.18292204 103.21854155 89.83312548 105.4140625 85.40234375 C105.82917084 84.57166885 106.24427917 83.74099396 106.67196655 82.88514709 C107.54623 81.13360606 108.41855447 79.38109604 109.2890625 77.62768555 C110.62300044 74.94152652 111.96333356 72.25863408 113.3046875 69.57617188 C114.15402398 67.87258431 115.00299489 66.16881442 115.8515625 64.46484375 C116.25259186 63.66167221 116.65362122 62.85850067 117.06680298 62.0309906 C117.43743866 61.28333939 117.80807434 60.53568817 118.18994141 59.76538086 C118.51620514 59.1090416 118.84246887 58.45270233 119.17861938 57.776474 C120.11803717 55.83107029 120.11803717 55.83107029 121 53 C120.04738281 52.90203125 119.09476563 52.8040625 118.11328125 52.703125 C116.85902344 52.55359375 115.60476563 52.4040625 114.3125 52.25 C113.07113281 52.11078125 111.82976562 51.9715625 110.55078125 51.828125 C106.67722077 50.92472036 104.82671969 49.74805402 102 47 C97.70323753 38.40647506 101.42444002 22.61934457 102.4375 13.5 C102.63907715 11.68254272 102.63907715 11.68254272 102.84472656 9.82836914 C103.86425047 1.13574953 103.86425047 1.13574953 105 0 C107.19050021 0.09017996 109.378466 0.24666208 111.5625 0.4375 C112.76003906 0.53933594 113.95757813 0.64117188 115.19140625 0.74609375 C116.11824219 0.82988281 117.04507812 0.91367188 118 1 C118.12375 1.62648438 118.2475 2.25296875 118.375 2.8984375 C118.58125 3.71570312 118.7875 4.53296875 119 5.375 C119.185625 6.18710938 119.37125 6.99921875 119.5625 7.8359375 C121.45360454 10.68287205 123.35773018 10.87393196 126.58520508 11.60409546 C131.06010835 12.33775384 135.53643689 12.36108044 140.0625 12.4140625 C141.09439453 12.43342865 142.12628906 12.4527948 143.18945312 12.4727478 C146.45955343 12.53214727 149.72968969 12.57876973 153 12.625 C155.22787926 12.66321627 157.45574432 12.70227009 159.68359375 12.7421875 C165.12226905 12.83781585 170.56103108 12.92297736 176 13 C175.40829071 21.66523189 174.30988781 30.17621324 172.9375 38.75 C172.75123047 39.9359375 172.56496094 41.121875 172.37304688 42.34375 C171.9191931 45.22979449 171.4614584 48.11516345 171 51 C169.88882812 51.14695312 168.77765625 51.29390625 167.6328125 51.4453125 C154.76103209 53.31206823 145.92852937 56.67110222 137.2734375 66.875 C132.45373209 73.50002462 128.75975627 80.73931614 125 88 C124.24275635 89.43714355 124.24275635 89.43714355 123.47021484 90.90332031 C121.9015615 93.88584159 120.35349183 96.87810482 118.8125 99.875 C118.31830566 100.82020508 117.82411133 101.76541016 117.31494141 102.73925781 C116.86683105 103.62709961 116.4187207 104.51494141 115.95703125 105.4296875 C115.55460205 106.21585449 115.15217285 107.00202148 114.73754883 107.81201172 C113.87827129 110.36111642 114.03273088 111.52035246 115 114 C116.37488767 115.70022227 116.37488767 115.70022227 118.125 117.25 C120.63901691 119.59023694 122.91474612 122.03660085 125.1484375 124.640625 C129.36394566 129.50096348 133.91674372 133.98914904 138.5 138.5 C143.63125494 143.55019246 148.62301834 148.61926756 153.30712891 154.08837891 C155.05024099 156.05673305 156.87177345 157.902714 158.74609375 159.74609375 C159.35517578 160.35646484 159.96425781 160.96683594 160.59179688 161.59570312 C161.83411166 162.83538867 163.0924127 164.05923576 164.36523438 165.26757812 C167.58969295 168.55437854 168.89861491 170.2788807 169.5546875 174.9453125 C169.4209603 176.63503954 169.22676422 178.32022667 169 180 C168.85280518 181.21469971 168.70561035 182.42939941 168.55395508 183.6809082 C168.10337986 187.21063101 167.57962188 190.72565492 167.02856445 194.2409668 C166.68479406 196.45492688 166.36258357 198.67139132 166.04101562 200.88867188 C165.82421671 202.29967953 165.6061636 203.71049518 165.38671875 205.12109375 C165.09607544 207.03039673 165.09607544 207.03039673 164.79956055 208.97827148 C164 212 164 212 161 214 C154.44255128 214.92994059 154.44255128 214.92994059 151.15185547 212.80859375 C149.2977799 211.1237291 147.61436138 209.36106926 145.9375 207.5 C145.36451172 206.89929687 144.79152344 206.29859375 144.20117188 205.6796875 C141.2322793 202.540476 138.38943074 199.30144668 135.56640625 196.03125 C131.90280787 191.81977133 127.98336266 187.90705303 124 184 C122.64327703 182.6692679 121.28909535 181.3359398 119.9375 180 C119.34839844 179.4225 118.75929688 178.845 118.15234375 178.25 C116.34559111 176.36127128 114.64871411 174.43666512 112.94897461 172.45336914 C108.17890722 166.97105892 103.02016606 161.87580799 97.87890625 156.74609375 C96.80933836 155.67585033 95.73991879 154.60545866 94.67063904 153.53492737 C92.44081776 151.30364087 90.2092216 149.07414943 87.97631836 146.84594727 C85.13435568 144.00968112 82.29690758 141.16894769 79.46078587 138.32684231 C77.25681774 136.11923667 75.05044381 133.91404779 72.84336662 131.70955086 C71.79699551 130.66384021 70.75134826 129.61740465 69.70648384 128.57018852 C64.48872407 123.3432605 59.23734836 118.21033513 53.62657166 113.40196228 C51.72279734 111.76107559 49.92468246 110.03934287 48.15625 108.25390625 C47.55039063 107.64482422 46.94453125 107.03574219 46.3203125 106.40820312 C45.71960937 105.79912109 45.11890625 105.19003906 44.5 104.5625 C43.86835937 103.92634766 43.23671875 103.29019531 42.5859375 102.63476562 C41.05494226 101.09217194 39.52712333 99.54642686 38 98 C35.50754307 101.73868539 34.29871842 105.512905 32.875 109.75 C32.59785156 110.53632812 32.32070312 111.32265625 32.03515625 112.1328125 C29.48547877 119.69392504 29.43124397 125.38650991 32.125 133 C32.36710205 133.71309326 32.6092041 134.42618652 32.85864258 135.16088867 C34.46908925 139.64139286 36.37777239 143.79736299 38.69906616 147.95805359 C50.89067604 169.82942753 50.84829874 185.85008968 45 210 C44.3426738 210.00808685 43.6853476 210.01617371 43.00810242 210.02450562 C36.17878567 210.11043124 29.34976321 210.20992949 22.52075195 210.31738281 C19.97067194 210.35571278 17.42053711 210.39055848 14.87036133 210.421875 C11.20894757 210.46743799 7.5479125 210.52544738 3.88671875 210.5859375 C2.17097908 210.60326431 2.17097908 210.60326431 0.420578 210.62094116 C-1.17073189 210.6507457 -1.17073189 210.6507457 -2.79418945 210.68115234 C-3.72906693 210.69447601 -4.6639444 210.70779968 -5.62715149 210.7215271 C-8.26551607 210.84916728 -8.26551607 210.84916728 -11 213 C-13.62890625 213.01171875 -13.62890625 213.01171875 -16.5625 212.6875 C-17.53316406 212.58824219 -18.50382812 212.48898437 -19.50390625 212.38671875 C-22 212 -22 212 -24 211 C-23.45116201 203.7373081 -22.2542747 196.78163358 -20.625 189.6875 C-20.31175781 188.24407227 -20.31175781 188.24407227 -19.9921875 186.77148438 C-17.91645606 177.62687485 -17.91645606 177.62687485 -15 174 C-11.55013018 172.85004339 -8.55864452 172.68726395 -4.92578125 172.46484375 C-4.2419487 172.42186661 -3.55811615 172.37888947 -2.8535614 172.33460999 C-0.67342222 172.19846319 1.50701096 172.06791145 3.6875 171.9375 C5.16734054 171.84607191 6.64715861 171.75427934 8.12695312 171.66210938 C11.75105107 171.43717931 15.37543355 171.21726526 19 171 C18.67725098 170.22398437 18.35450195 169.44796875 18.02197266 168.6484375 C16.8135609 165.73538737 15.61022403 162.82030498 14.41015625 159.90380859 C13.89228692 158.64810429 13.372472 157.39320038 12.85058594 156.13916016 C6.62708074 141.17651835 3.99991253 130.99845154 9.93652344 115.55712891 C12.71726622 108.87083415 15.89522819 102.34139463 19.07324219 95.83642578 C19.59305664 94.75216309 20.11287109 93.66790039 20.6484375 92.55078125 C21.12458496 91.57794189 21.60073242 90.60510254 22.09130859 89.6027832 C23.07077671 86.79727283 23.13598598 85.70164348 22 83 C20.43503357 81.03376217 20.43503357 81.03376217 18.4375 79.1875 C17.715625 78.49140625 16.99375 77.7953125 16.25 77.078125 C13.53062557 74.56648056 10.74672454 72.13861595 7.94921875 69.71484375 C-4.48567517 58.77512745 -4.48567517 58.77512745 -5.24047852 51.76733398 C-5.29422387 41.1755907 -3.8155976 30.73946275 -2.5 20.25 C-2.25845544 18.28133076 -2.01756469 16.31258119 -1.77734375 14.34375 C-1.19243 9.56154042 -0.59867771 4.78050517 0 0 Z " fill="#000000" transform="translate(1097,1282)"/>
<path d="M0 0 C4.29 0.33 8.58 0.66 13 1 C13.87890625 3.27864583 14.7578125 5.55729167 15.63671875 7.8359375 C17.4756444 10.75503437 18.6626605 11.12900327 22 12 C25.07549591 12.4071213 28.15748315 12.63771557 31.25 12.875 C40.00287473 13.69452032 47.1400505 14.61180728 53.375 21.3125 C60.02625231 29.93517612 60.14979137 38.96718268 60.0625 49.375 C60.05798828 50.39722656 60.05347656 51.41945313 60.04882812 52.47265625 C60.037103 54.98183194 60.02069176 57.4908849 60 60 C62.0657728 57.4805045 64.12872217 54.95881343 66.1875 52.43359375 C68.1096838 50.07932816 70.04968644 47.74115602 72 45.41015625 C72.51578613 44.78496094 73.03157227 44.15976563 73.56298828 43.515625 C74.66728417 42.18794735 75.78884233 40.87447922 76.92529297 39.57421875 C80.19430815 35.71654428 82.43148239 32.25814915 84.2578125 27.52734375 C87.0311849 21.12216079 89.58865319 16.2542232 96 13 C115.16382431 8.66541259 145.55125961 8.91163629 162.84375 19.4375 C170.82521263 25.22116857 175.92559402 32.10063956 180 41 C180.66128906 42.42892578 180.66128906 42.42892578 181.3359375 43.88671875 C201.15794584 90.79880516 192.16913542 159.42177672 181 208 C180.67 208.66 180.34 209.32 180 210 C178.75385422 210.00808685 177.50770844 210.01617371 176.22380066 210.02450562 C164.49587507 210.10189741 152.76806649 210.18961897 141.04029369 210.28752708 C135.01052857 210.33753198 128.98078133 210.38386166 122.95092773 210.421875 C117.13480451 210.45867479 111.31882939 210.50502027 105.50283241 210.55806351 C103.28084211 210.5766357 101.05882004 210.59173314 98.83678246 210.60334396 C95.73112099 210.62015803 92.62580082 210.64918143 89.52026367 210.68115234 C88.59597565 210.68331253 87.67168762 210.68547272 86.71939087 210.68769836 C85.87385147 210.69886185 85.02831207 210.71002533 84.15715027 210.7215271 C83.05514676 210.72982324 83.05514676 210.72982324 81.93088055 210.73828697 C79.67473312 210.90056961 79.67473312 210.90056961 77 213 C74.37109375 213.01171875 74.37109375 213.01171875 71.4375 212.6875 C70.46683594 212.58824219 69.49617188 212.48898437 68.49609375 212.38671875 C66 212 66 212 64 211 C64.65754113 203.9570039 65.87704443 197.16021171 67.375 190.25 C67.58382813 189.23550781 67.79265625 188.22101563 68.0078125 187.17578125 C70.07895559 177.56517215 70.07895559 177.56517215 73 174 C83.13295312 170.62234896 95.20340176 171.86747957 105.796875 171.90234375 C107.48366249 171.90421319 109.17045054 171.9056346 110.85723877 171.90663147 C115.2564041 171.91041526 119.65553543 171.92020927 124.0546875 171.93133545 C128.55989116 171.94163947 133.06510041 171.94614819 137.5703125 171.95117188 C146.38022379 171.96183604 155.19010764 171.97886155 164 172 C164.59360735 166.43853312 165.17988957 160.87638911 165.75744629 155.31323242 C165.94779389 153.49788912 166.14579273 151.68334787 166.34667969 149.86914062 C167.19000977 141.76188567 167.24239936 133.64274632 167.25 125.5 C167.25100708 124.74910095 167.25201416 123.9982019 167.25305176 123.22454834 C167.23490046 103.18177808 166.22162536 80.32848955 151.9296875 64.7421875 C142.42669265 55.76897634 130.82314114 52.38861921 117.83984375 52.7578125 C101.48430189 54.15264551 86.44332637 58.99342884 74 70 C73.18789062 70.61617187 72.37578125 71.23234375 71.5390625 71.8671875 C53.03591076 87.40983496 49.16507821 114.55117969 45 136.9375 C44.83046814 137.83554352 44.66093628 138.73358704 44.48626709 139.65884399 C41.08747977 157.69833201 38.39113641 175.80285064 36 194 C35.71460681 196.14498288 35.42816095 198.28982333 35.14157104 200.43464661 C34.76011886 203.28964079 34.38007649 206.1448224 34 209 C30.18994513 210.12028151 26.43874816 211.19904414 22.51953125 211.8515625 C21.74802734 211.98046875 20.97652344 212.109375 20.18164062 212.2421875 C19.39982422 212.36851562 18.61800781 212.49484375 17.8125 212.625 C16.62237305 212.82609375 16.62237305 212.82609375 15.40820312 213.03125 C11.83845696 213.61871452 8.64269822 214 5 214 C5.58259092 208.45687559 6.58405676 203.32358013 8.1171875 197.97265625 C8.55898282 196.38518585 9.00011229 194.79753004 9.44067383 193.2097168 C9.67412506 192.37403168 9.90757629 191.53834656 10.14810181 190.67733765 C18.81575176 159.49759664 26.20374369 127.9010587 31.6875 96 C31.87501328 94.94200699 31.87501328 94.94200699 32.0663147 93.86264038 C33.4003659 86.23928104 34.22487955 78.67727521 34.33203125 70.9375 C34.34852219 70.24696533 34.36501312 69.55643066 34.38200378 68.8449707 C34.36249796 63.78930644 33.35367634 60.38384212 31 56 C25.91799144 52.93446208 21.31619153 52.58947898 15.5625 52.5 C1.87620221 51.97700369 1.87620221 51.97700369 -2.671875 47.26953125 C-8.82683039 36.75179866 -2.74270991 13.46819081 -1 2 C-0.67 1.34 -0.34 0.68 0 0 Z " fill="#000000" transform="translate(1912,1282)"/>
<path d="M0 0 C6.93 0.495 6.93 0.495 14 1 C14.55338542 2.98567708 15.10677083 4.97135417 15.66015625 6.95703125 C17.66644412 10.01618155 20.62927863 10.9287665 24 12 C27.52205573 12.4455779 27.52205573 12.4455779 31.22593689 12.38526917 C32.26540595 12.39312271 32.26540595 12.39312271 33.32587439 12.40113491 C35.63010983 12.41501723 37.93377857 12.40781521 40.23803711 12.40063477 C41.897822 12.40638191 43.55760271 12.41346658 45.21737671 12.42178345 C48.78481352 12.43687026 52.35210093 12.442673 55.91956902 12.44125557 C61.57443865 12.43921524 67.2291091 12.45883698 72.88392639 12.48143005 C83.88183677 12.52238094 94.87973141 12.54098794 105.87770081 12.55760193 C119.84338809 12.57995795 133.80902875 12.61378999 147.7746411 12.66480106 C153.38088193 12.68457856 158.98701874 12.69429315 164.59329307 12.69575322 C168.10344998 12.69853085 171.61355083 12.70942073 175.12368393 12.72226334 C176.73435882 12.72649324 178.34504679 12.72743735 179.95572472 12.72458839 C198.59311344 12.69544108 219.35268369 12.977298 234 26 C248.55067764 40.80251629 247.99165741 63.02907806 248.33074951 82.42550659 C248.99596822 118.3092387 251.20094679 154.18938578 254.08544922 189.95874023 C254.14701706 190.72975571 254.2085849 191.50077118 254.27201843 192.29515076 C254.43575118 194.33242717 254.60379114 196.36935619 254.7722168 198.40625 C254.99673237 201.94844642 255.04029476 205.45177456 255 209 C249.82877807 210.56910428 244.69744863 211.70344529 239.375 212.625 C238.63765625 212.7590625 237.9003125 212.893125 237.140625 213.03125 C236.42132812 213.15757812 235.70203125 213.28390625 234.9609375 213.4140625 C234.31946777 213.5270166 233.67799805 213.6399707 233.01708984 213.75634766 C230.66507755 214.04045662 228.36723911 214.01518534 226 214 C225.85180779 191.95897354 226.23182788 169.96822787 226.92712402 147.93902588 C231.54538226 103.89930824 231.54538226 103.89930824 217.6875 64.1875 C203.14689682 52.35212532 186.3589194 52.85299642 168.45239258 52.84228516 C166.68889745 52.83760933 164.92540352 52.83246451 163.16191101 52.82688904 C159.38173856 52.81566533 155.60157373 52.80720408 151.82139015 52.80076981 C145.84115841 52.79003688 139.86098215 52.76978115 133.88078308 52.74765015 C116.88156662 52.68589345 99.8823551 52.63166135 82.88305664 52.59863281 C73.48126568 52.58028635 64.0795694 52.5513588 54.67784804 52.5106281 C49.70844926 52.48957587 44.73916962 52.47410316 39.76972389 52.47182083 C35.10006761 52.46967318 30.43066024 52.45379183 25.76107979 52.42743111 C24.04987714 52.42024389 22.33864432 52.41813434 20.62742996 52.42153358 C18.28732212 52.42543911 15.94800516 52.41094016 13.60798645 52.39199829 C11.64607471 52.38703307 11.64607471 52.38703307 9.64452839 52.38196754 C4.67421797 51.86105042 0.5298323 50.67788058 -2.9375 46.875 C-5.29427222 40.49785163 -3.93196227 33.09734354 -3.125 26.46484375 C-3.03621582 25.70071671 -2.94743164 24.93658966 -2.85595703 24.14930725 C-2.57546505 21.74477556 -2.28786907 19.34115846 -2 16.9375 C-1.80681794 15.29237327 -1.61410551 13.64719132 -1.421875 12.00195312 C-0.95333369 8.00064433 -0.4784261 4.00013843 0 0 Z " fill="#000000" transform="translate(794,1282)"/>
<path d="M0 0 C4.29 0.33 8.58 0.66 13 1 C13.4125 2.093125 13.825 3.18625 14.25 4.3125 C15.63154893 7.52314188 16.85336524 9.28365376 20 11 C23.55262075 12.15309253 26.9900728 12.17143786 30.70703125 12.24609375 C32.6705957 12.29540039 32.6705957 12.29540039 34.67382812 12.34570312 C36.74059441 12.39295889 38.80733615 12.43740155 40.87426758 12.47680664 C42.88119831 12.51688286 44.88787953 12.56888337 46.89453125 12.62109375 C48.08925049 12.6461499 49.28396973 12.67120605 50.51489258 12.69702148 C55.04544247 13.09088575 59.44493067 13.60995844 62.9140625 16.7109375 C67.36115687 26.08502851 63.40077058 41.42529666 62.06787109 51.24658203 C60.08591781 66.47917438 61.21104537 81.56395686 62.22680664 96.82763672 C62.43892527 100.02146 62.6428477 103.21573253 62.84570312 106.41015625 C62.97868948 108.4609685 63.1121364 110.51175095 63.24609375 112.5625 C63.3065538 113.50738281 63.36701385 114.45226563 63.42930603 115.42578125 C63.75902225 120.32881888 64.22809292 125.14634817 65 130 C65.32572998 129.54898926 65.65145996 129.09797852 65.98706055 128.63330078 C66.97841939 127.26065008 67.96979474 125.88801129 68.96118164 124.51538086 C70.12845502 122.89909269 71.29560669 121.28271661 72.46264648 119.66625977 C75.4176384 115.57366904 78.37415689 111.48221236 81.3359375 107.39453125 C87.09736313 99.43856651 92.81431912 91.4547998 98.46313477 83.41845703 C102.79902419 77.25961294 107.206 71.15341646 111.63671875 65.0625 C114.5154633 61.0960686 117.31418236 57.09974568 120 53 C119.19175781 52.89042969 118.38351562 52.78085938 117.55078125 52.66796875 C115.94783203 52.43013672 115.94783203 52.43013672 114.3125 52.1875 C113.25675781 52.03667969 112.20101562 51.88585938 111.11328125 51.73046875 C107.06439597 50.78047936 103.96344275 49.51398146 101.6875 45.9375 C99.40844551 36.19972174 101.74674285 25.65713465 103 15.875 C103.19326831 14.33079915 103.38598099 12.78652865 103.578125 11.2421875 C104.04466401 7.49378788 104.52255512 3.7470897 105 0 C111.93 0.495 111.93 0.495 119 1 C119.2475 2.093125 119.495 3.18625 119.75 4.3125 C121.03841325 8.11331909 121.55053973 9.17381515 125 11 C127.78161534 11.82960258 130.32136129 12.14274546 133.21777344 12.20532227 C134.03832214 12.22526749 134.85887085 12.24521271 135.70428467 12.26576233 C136.58046448 12.28247482 137.45664429 12.29918732 138.359375 12.31640625 C139.26375305 12.33718735 140.1681311 12.35796844 141.09991455 12.37937927 C143.98320055 12.4446594 146.8665761 12.50365952 149.75 12.5625 C151.70704044 12.60570571 153.66407188 12.64932065 155.62109375 12.69335938 C160.4139712 12.80031872 165.20693854 12.90164673 170 13 C169.4238126 21.50718086 168.34207298 29.84241477 166.9375 38.25 C166.75123047 39.38824219 166.56496094 40.52648438 166.37304688 41.69921875 C165.91952589 44.46685961 165.46179385 47.23372969 165 50 C164.16597656 50.21914062 163.33195313 50.43828125 162.47265625 50.6640625 C155.0095084 52.76708011 149.06483859 55.15936031 143 60 C142.26265625 60.58652344 141.5253125 61.17304687 140.765625 61.77734375 C135.6487149 66.0914283 131.44391362 70.8763749 127.29296875 76.11328125 C125.04530851 78.94295914 122.72055382 81.68874354 120.375 84.4375 C113.21953931 93.01076095 106.64083566 102.02658351 100 111 C99.09362793 112.22227295 99.09362793 112.22227295 98.16894531 113.46923828 C91.1897916 122.88479967 84.27385084 132.34430937 77.43701172 141.86376953 C76.94217285 142.55196777 76.44733398 143.24016602 75.9375 143.94921875 C75.51339844 144.54049561 75.08929687 145.13177246 74.65234375 145.7409668 C73 148 73 148 71.48329163 149.70675659 C67.79388293 154.0676594 66.31923259 156.94940235 66.6721344 162.67803955 C66.80155678 163.9743631 66.80155678 163.9743631 66.93359375 165.296875 C67.00186874 166.25986511 67.07014374 167.22285522 67.14048767 168.21502686 C67.30427472 170.47991647 67.48304017 172.74374994 67.67303467 175.0065918 C68.05406696 179.55381086 68.36067265 184.10553209 68.66845703 188.65820312 C69.16934453 196.0064504 69.68647777 203.35331858 70.22070312 210.69921875 C70.28945963 211.64482414 70.35821613 212.59042953 70.42905617 213.56468964 C70.71104536 217.437358 70.99376902 221.30997231 71.2769165 225.18255615 C71.69679443 230.92694005 72.11351544 236.67153502 72.52584648 242.41646576 C72.71774024 245.07257965 72.91420741 247.72832877 73.1108551 250.38409424 C73.70756637 258.60126273 74.21242044 266.75407383 74 275 C70.68846477 275.65088016 67.3757297 276.29529787 64.0625 276.9375 C63.13630859 277.11990234 62.21011719 277.30230469 61.25585938 277.49023438 C59.87817383 277.75610352 59.87817383 277.75610352 58.47265625 278.02734375 C57.22367554 278.27085571 57.22367554 278.27085571 55.94946289 278.51928711 C53.40322178 278.93428162 50.87922822 279.25088357 48.31565857 279.53004456 C47.10261126 279.66275678 47.10261126 279.66275678 45.86505795 279.79815006 C45.24958882 279.86476054 44.6341197 279.93137102 44 280 C43.26730402 256.05267534 42.80565701 232.11394384 42.58500862 208.15666008 C42.53434996 202.67694574 42.47732443 197.19730725 42.41929626 191.71766663 C42.25537914 176.17098094 42.09635012 160.62425847 41.95043945 145.07739258 C41.86908974 136.41512517 41.78103235 127.75295266 41.68557256 119.09082896 C41.62603089 113.65580036 41.57451439 108.22077763 41.52918065 102.78561294 C41.49902915 99.41109254 41.4609688 96.03669475 41.42072487 92.66228104 C41.40376668 91.11120479 41.38995787 89.56009005 41.37970352 88.008955 C41.71941709 71.74972075 41.71941709 71.74972075 36 57 C29.34441887 51.8234369 20.00743086 52.7469375 11.93945312 52.5703125 C6.02739388 52.3434709 2.07928617 51.13731044 -2.8515625 47.71484375 C-9.29659346 38.09114105 -2.62166395 12.60545825 -1 2 C-0.67 1.34 -0.34 0.68 0 0 Z " fill="#000000" transform="translate(597,1282)"/>
<path d="M0 0 C6.93 0.495 6.93 0.495 14 1 C14.32552083 3.27864583 14.65104167 5.55729167 14.9765625 7.8359375 C15.83809109 10.22762752 15.83809109 10.22762752 18.41796875 11.234375 C23.16285445 12.24854904 27.85341239 12.55373315 32.6875 12.875 C42.87706972 13.69343933 52.77717264 14.72788821 60.50390625 22.12109375 C70.34335796 34.47821195 69.29740432 51.23981409 69.46304321 66.15280151 C69.52723899 71.6413549 69.62934632 77.12920902 69.73046875 82.6171875 C69.75090744 83.74154709 69.77134613 84.86590668 69.79240417 86.02433777 C70.00142335 97.00093337 70.35166183 107.96869767 70.8125 118.9375 C70.8712027 120.33545807 70.8712027 120.33545807 70.93109131 121.76165771 C71.80121539 141.88581164 73.21448216 161.97593866 74.67895508 182.06420898 C74.76590134 183.26565552 74.8528476 184.46710205 74.94242859 185.70495605 C75.10590356 187.95369614 75.27199325 190.20224835 75.4412384 192.45056152 C75.84481108 197.98580823 76.0855819 203.45005535 76 209 C70.82877807 210.56910428 65.69744863 211.70344529 60.375 212.625 C59.26898437 212.82609375 59.26898437 212.82609375 58.140625 213.03125 C57.42132812 213.15757812 56.70203125 213.28390625 55.9609375 213.4140625 C55.31946777 213.5270166 54.67799805 213.6399707 54.01708984 213.75634766 C51.66507755 214.04045662 49.36723911 214.01518534 47 214 C46.86083566 193.77620996 47.18305424 173.60554795 47.85586548 153.39376831 C48.85930781 123.37226326 48.85930781 123.37226326 49.29956055 93.33911133 C49.30802131 91.7687621 49.32148542 90.1984298 49.34057617 88.62817383 C49.45361619 78.48702963 49.44440942 67.64598057 43.5625 58.9375 C36.26971623 51.69756249 24.13675425 52.58882906 14.56225586 52.46533203 C8.34065834 52.3244481 1.94130221 51.9539421 -2.7043457 47.28833008 C-7.24000796 39.27763433 -3.57481619 25.11258816 -2.5625 16.3125 C-2.42779297 15.06533203 -2.29308594 13.81816406 -2.15429688 12.53320312 C-1.14422053 3.43266158 -1.14422053 3.43266158 0 0 Z " fill="#000000" transform="translate(1295,1282)"/>
<path d="M0 0 C2.65565787 2.39969682 4.27998553 4.96444189 6.046875 8.06640625 C6.63662109 9.09572266 7.22636719 10.12503906 7.83398438 11.18554688 C8.46626953 12.29994141 9.09855469 13.41433594 9.75 14.5625 C10.41941347 15.73401461 11.08934426 16.90523376 11.75976562 18.07617188 C13.15239997 20.50943834 14.54279747 22.94396232 15.93164062 25.37939453 C19.10029766 30.93157593 22.30179441 36.46480662 25.5 42 C26.75015525 44.16657709 28.00015473 46.33324407 29.25 48.5 C29.86875 49.5725 30.4875 50.645 31.125 51.75 C38 63.66666667 44.875 75.58333333 51.75 87.5 C52.6795752 89.11116699 52.6795752 89.11116699 53.62792969 90.75488281 C54.86838986 92.90514319 56.10862703 95.05553224 57.34863281 97.20605469 C60.26830662 102.26897509 63.19018475 107.33058332 66.12011719 112.38757324 C67.49918031 114.76812173 68.87695785 117.14941306 70.25463867 119.53076172 C71.22384658 121.2048265 72.19490565 122.87781912 73.16601562 124.55078125 C74.05063477 126.08025391 74.05063477 126.08025391 74.953125 127.640625 C75.47036133 128.53297852 75.98759766 129.42533203 76.52050781 130.34472656 C78.10170245 133.18252736 79.54718963 136.09437926 81 139 C72.42 139 63.84 139 55 139 C48.73046875 128.1328125 42.4609375 117.265625 36.19140625 106.3984375 C35.58063232 105.33979492 34.9698584 104.28115234 34.34057617 103.19042969 C33.10755343 101.05312484 31.87464435 98.91575442 30.6418457 96.77832031 C27.44357723 91.23348482 24.24314678 85.68991464 21.0390625 80.1484375 C14.28943352 68.47046821 7.57674578 56.77629709 1 45 C-4.37932954 53.62692609 -9.5494377 62.34136632 -14.5625 71.1875 C-15.96765477 73.65817597 -17.37451273 76.12788106 -18.78125 78.59765625 C-19.31063927 79.52780548 -19.31063927 79.52780548 -19.85072327 80.47674561 C-25.21653721 89.90047222 -30.6535771 99.28322636 -36.07958984 108.67236328 C-37.77826548 111.6157842 -39.47372958 114.5610071 -41.16716003 117.50744629 C-42.56518138 119.9398684 -43.96432129 122.37164631 -45.36349487 124.80340576 C-46.35740531 126.53190132 -47.34973753 128.26130407 -48.34204102 129.99072266 C-48.93815186 131.02632324 -49.5342627 132.06192383 -50.1484375 133.12890625 C-50.67614746 134.04744385 -51.20385742 134.96598145 -51.74755859 135.91235352 C-53 138 -53 138 -54 139 C-55.85369611 139.08737645 -57.71067541 139.10698153 -59.56640625 139.09765625 C-60.69111328 139.09443359 -61.81582031 139.09121094 -62.97460938 139.08789062 C-64.15861328 139.07951172 -65.34261719 139.07113281 -66.5625 139.0625 C-67.75037109 139.05798828 -68.93824219 139.05347656 -70.16210938 139.04882812 C-73.10812226 139.03699675 -76.05403681 139.02051287 -79 139 C-77.37741852 132.85883719 -74.10248156 127.77767701 -70.875 122.375 C-69.60034343 120.21686539 -68.3269566 118.05798044 -67.0546875 115.8984375 C-66.05646973 114.20605957 -66.05646973 114.20605957 -65.03808594 112.47949219 C-61.97803362 107.27077563 -58.99350105 102.01892814 -56.00613403 96.76831055 C-50.13741463 86.4538613 -44.20870569 76.17646525 -38.21655273 65.93310547 C-31.42493684 54.31918267 -24.71548228 42.65805025 -18 31 C-15.58216338 26.8036869 -13.16359338 22.60779716 -10.74435425 18.41229248 C-9.77393527 16.72901778 -8.80407481 15.04542113 -7.83422852 13.36181641 C-6.94948853 11.82726807 -6.94948853 11.82726807 -6.046875 10.26171875 C-5.52963867 9.36412842 -5.01240234 8.46653809 -4.47949219 7.54174805 C-3.0082728 5.01421255 -1.51048171 2.5042345 0 0 Z " fill="#000000" transform="translate(1435,902)"/>
<path d="M0 0 C6.93 0.495 6.93 0.495 14 1 C14.2475 2.093125 14.495 3.18625 14.75 4.3125 C16.03569781 8.10530855 16.58713933 9.13843964 20 11 C22.63698552 11.87899517 24.31390162 12.15385473 27.02734375 12.24609375 C27.81375244 12.27735352 28.60016113 12.30861328 29.41040039 12.34082031 C30.6613147 12.38867676 30.6613147 12.38867676 31.9375 12.4375 C58.42406716 13.70506252 58.42406716 13.70506252 67.4375 23.25 C72.69463188 30.34717823 73.5036747 38.07877347 73.4375 46.6875 C73.45748047 47.55955078 73.47746094 48.43160156 73.49804688 49.33007812 C73.48456454 68.7041977 67.41820777 88.22992283 62.75 106.875 C62.18948095 109.13526221 61.62958211 111.39567831 61.0703125 113.65625 C59.7217705 119.10627475 58.36069512 124.5529406 57 130 C47.1 131.65 37.2 133.3 27 135 C30.35961538 124.92115385 30.35961538 124.92115385 32.19921875 120.93359375 C32.80068726 119.60473145 32.80068726 119.60473145 33.41430664 118.24902344 C33.83446045 117.3212207 34.25461426 116.39341797 34.6875 115.4375 C38.3509828 107.1593143 41.65428437 98.82367578 44.5625 90.25 C44.89660889 89.28763428 45.23071777 88.32526855 45.57495117 87.33374023 C48.39247332 78.7863925 50.68158829 69.59037268 47 61 C43.51458522 56.35278029 38.5980661 54.48187218 32.98828125 53.44140625 C26.85769813 52.63391599 20.62361636 52.68099312 14.44921875 52.5703125 C7.80298297 52.36125659 1.86933656 52.05445505 -2.9375 46.9375 C-6.27683172 37.70522995 -3.18322212 25.90629094 -2 16.375 C-1.80674818 14.78261795 -1.61403554 13.19017036 -1.421875 11.59765625 C-0.95412824 7.7309874 -0.47909825 3.86527806 0 0 Z " fill="#000000" transform="translate(1814,1282)"/>
<path d="M0 0 C8.25275894 -1.516408 16.90055491 -2.71450673 25 0 C31.21340753 5.19442965 34.15548372 13.29161219 37.38427734 20.52734375 C40.02241472 26.19746554 43.24789648 31.50230461 46.4375 36.875 C47.69982222 39.05804419 48.95892488 41.24295315 50.21484375 43.4296875 C54.59021145 51.025389 58.97077075 58.61809116 63.3527832 66.20996094 C66.26147065 71.2500043 69.16842846 76.29101745 72.06854248 81.33599854 C73.09275665 83.11749578 74.11757651 84.89864322 75.14257812 86.6796875 C76.42633375 88.91076625 77.70895939 91.14249573 78.99023438 93.375 C81.56196371 97.84213648 84.149475 102.27615395 86.9296875 106.6171875 C89 110 89 110 89 112 C80.42 112 71.84 112 63 112 C60.97875 108.37 58.9575 104.74 56.875 101 C50.89148256 90.2912833 44.76493686 79.67315516 38.5625 69.08984375 C32.96822077 59.54221213 27.4582506 49.94578877 21.93505859 40.35693359 C19.92395246 36.86807297 17.90969005 33.38105172 15.89453125 29.89453125 C15.21474214 28.71794788 14.53497305 27.54135295 13.85522461 26.36474609 C12.57401834 24.14731622 11.29231333 21.93017441 10.01000977 19.71337891 C8.33443539 16.81207363 6.66525594 13.90723785 5 11 C4.49243164 10.11844238 3.98486328 9.23688477 3.46191406 8.32861328 C2.77307129 7.1160083 2.77307129 7.1160083 2.0703125 5.87890625 C1.66828613 5.17451416 1.26625977 4.47012207 0.85205078 3.74438477 C0 2 0 2 0 0 Z " fill="#000000" transform="translate(1215,1051)"/>
<path d="M0 0 C8.58 0 17.16 0 26 0 C22.40452927 7.47479441 18.5326288 14.63183958 14.29614258 21.75390625 C10.41228211 28.28325394 6.60365211 34.85392177 2.8125 41.4375 C1.85645874 43.09676514 1.85645874 43.09676514 0.88110352 44.78955078 C-0.42762416 47.06123665 -1.73613484 49.33304755 -3.04443359 51.60498047 C-6.19332051 57.07169976 -9.34679599 62.53577005 -12.5 68 C-16.04121575 74.13710894 -19.58215111 80.27437761 -23.12011719 86.4133606 C-24.49806938 88.80426597 -25.87634172 91.19498672 -27.25463867 93.58569336 C-28.22540982 95.26983963 -29.19571874 96.95425231 -30.16601562 98.63867188 C-31.05063477 100.17297852 -31.05063477 100.17297852 -31.953125 101.73828125 C-32.47036133 102.63587158 -32.98759766 103.53346191 -33.52050781 104.45825195 C-34.00874023 105.29702881 -34.49697266 106.13580566 -35 107 C-35.43449463 107.92345215 -35.86898926 108.8469043 -36.31665039 109.79833984 C-38 112 -38 112 -40.72729492 112.56762695 C-41.80084229 112.54144287 -42.87438965 112.51525879 -43.98046875 112.48828125 C-45.14384766 112.47216797 -46.30722656 112.45605469 -47.50585938 112.43945312 C-48.72080078 112.39755859 -49.93574219 112.35566406 -51.1875 112.3125 C-52.41404297 112.28994141 -53.64058594 112.26738281 -54.90429688 112.24414062 C-57.93741559 112.18513053 -60.96810222 112.10284592 -64 112 C-60.52284273 104.7996878 -56.69342471 97.88094189 -52.625 91 C-51.37572478 88.87273476 -50.12704725 86.74511842 -48.87890625 84.6171875 C-48.23840332 83.52631836 -47.59790039 82.43544922 -46.93798828 81.31152344 C-43.78857787 75.92999121 -40.67480693 70.52804976 -37.5625 65.125 C-36.94068848 64.04605469 -36.31887695 62.96710938 -35.67822266 61.85546875 C-34.41567477 59.66449064 -33.15330512 57.47340981 -31.89111328 55.28222656 C-28.76319852 49.85340058 -25.63141635 44.42680671 -22.5 39 C-21.26951242 36.86719836 -20.03904375 34.73438582 -18.80859375 32.6015625 C-12.5390625 21.734375 -6.26953125 10.8671875 0 0 Z " fill="#000000" transform="translate(1631,1051)"/>
</svg>
